<?xml version="1.0" standalone="no"?><!DOCTYPE svg PUBLIC "-//W3C//DTD SVG 1.1//EN" "http://www.w3.org/Graphics/SVG/1.1/DTD/svg11.dtd"><svg t="1712753015721" class="icon" viewBox="0 0 1039 1024" version="1.1" xmlns="http://www.w3.org/2000/svg" p-id="4446" xmlns:xlink="http://www.w3.org/1999/xlink" width="202.9296875" height="200"><path d="M905.396352 858.681443a132.10205 132.10205 0 1 0-66.032904-245.684443l-93.794267-92.453314a162.472836 162.472836 0 0 0-5.291331-192.082541L789.820649 253.802648a132.10205 132.10205 0 1 0-52.188464-40.953447l-48.201845 72.483978a160.479527 160.479527 0 0 0-182.297204 11.887372L370.428354 208.717614a160.479527 160.479527 0 0 0-41.605804-160.479527 165.118501 165.118501 0 1 0 0 233.797071 167.075569 167.075569 0 0 0 11.235017-13.880682l124.020086 82.631734a155.188196 155.188196 0 0 0-14.496796 120.867033l-105.681639 54.145532a188.458342 188.458342 0 1 0 27.072766 59.436862l105.101767-54.145532a164.466146 164.466146 0 0 0 88.502937 57.987182l-40.301091 170.337348h-15.185394a132.10205 132.10205 0 1 0 77.267921 25.079457l48.201845-192.843623a163.777548 163.777548 0 0 0 66.032903-25.079457l93.28688 93.141912a131.522178 131.522178 0 0 0 111.625326 198.787309z m-623.362209-623.362209a99.049356 99.049356 0 1 1 28.993591-70.019523 99.049356 99.049356 0 0 1-28.993591 70.019523zM211.942136 726.579393a99.049356 99.049356 0 1 1 99.049356-99.049355 99.049356 99.049356 0 0 1-99.049356 99.049355z m297.184309 231.151405A66.032904 66.032904 0 1 1 575.159349 891.661653a66.032904 66.032904 0 0 1-66.032904 66.032903z m462.339052-231.151405a66.032904 66.032904 0 1 1-66.032903-66.032903 66.032904 66.032904 0 0 1 66.032903 66.032903zM839.327206 66.14163a66.032904 66.032904 0 1 1-66.032904 66.032903 66.032904 66.032904 0 0 1 66.032904-66.032903z m-330.200761 363.253454a99.049356 99.049356 0 1 1 99.049356 99.049356 99.049356 99.049356 0 0 1-99.049356-99.049356z" fill="#45668E" p-id="4447"></path></svg>