<svg xmlns="http://www.w3.org/2000/svg" xmlns:xlink="http://www.w3.org/1999/xlink" width="24" height="24" viewBox="0 0 24 24" fill="none"><g opacity="1"  transform="translate(0 0)  rotate(0)"><g opacity="1"  transform="translate(2.25 2.25)  rotate(0)"><path id="Union" fill-rule="evenodd" style="fill:#5E94FF" opacity="1" d="M19.06,10.49c0.07,0.08 0.13,0.14 0.17,0.18l0.07,0.07c0.27,0.29 0.27,0.73 0,1.02l-0.55,-0.51c0.55,0.51 0.53,0.53 0.53,0.53l-0.05,0.05c-0.04,0.04 -0.1,0.11 -0.17,0.18c-0.16,0.16 -0.38,0.38 -0.66,0.64c-0.55,0.53 -1.33,1.24 -2.24,1.94c-0.91,0.71 -1.95,1.43 -3.04,1.97c-1.07,0.54 -2.24,0.94 -3.37004,0.94c-1.13,0 -2.3,-0.4 -3.37,-0.94c-1.09,-0.54 -2.13,-1.26 -3.04,-1.97c-0.91,-0.7 -1.69,-1.41 -2.24,-1.94c-0.28,-0.26 -0.5,-0.48 -0.66,-0.64c-0.07,-0.07 -0.13,-0.14 -0.17,-0.18l-0.07,-0.07c-0.27,-0.29 -0.27,-0.73 0,-1.02l0.55,0.51c-0.55,-0.51 -0.53,-0.53 -0.53,-0.53l0.05,-0.05c0.04,-0.04 0.1,-0.1 0.17,-0.18c0.16,-0.16 0.38,-0.38 0.66,-0.64c0.55,-0.53 1.33,-1.23 2.24,-1.94c0.91,-0.71 1.95,-1.42 3.04,-1.97c1.07,-0.54 2.24,-0.94 3.37,-0.94c1.13004,0 2.30004,0.4 3.37004,0.94c1.09,0.55 2.13,1.26 3.04,1.97c0.91,0.71 1.69,1.41 2.24,1.94c0.28,0.26 0.5,0.48 0.66,0.64z"></path><path id="Union" fill-rule="evenodd" style="fill:#F9F9F9" opacity="1" d="M13.5 11.25C13.5 9.18 11.82 7.5 9.75 7.5C7.68 7.5 6 9.18 6 11.25C6 13.32 7.68 15 9.75 15C11.82 15 13.5 13.32 13.5 11.25Z"></path><path id="Vector 19 (Stroke)" fill-rule="evenodd" style="fill:#5E94FF" opacity="1" d="M9.75 4.5C10.16 4.5 10.5 4.16 10.5 3.75L10.5 0.75C10.5 0.34 10.16 0 9.75 0C9.34 0 9 0.34 9 0.75L9 3.75C9 4.16 9.34 4.5 9.75 4.5Z"></path><path id="Vector 20 (Stroke)" fill-rule="evenodd" style="fill:#5E94FF" opacity="1" d="M3.78 5.78C4.07 5.49 4.07 5.01 3.78 4.72L1.78 2.72C1.49 2.43 1.01 2.43 0.72 2.72C0.43 3.01 0.43 3.49 0.72 3.78L2.72 5.78C3.01 6.07 3.49 6.07 3.78 5.78Z"></path><path id="Vector 20 (Stroke)" fill-rule="evenodd" style="fill:#5E94FF" opacity="1" d="M18.78 3.78C19.07 3.49 19.07 3.01 18.78 2.72C18.49 2.43 18.01 2.43 17.72 2.72L15.72 4.72C15.43 5.01 15.43 5.49 15.72 5.78C16.01 6.07 16.49 6.07 16.78 5.78L18.78 3.78Z"></path></g></g></svg>
